# xmcd
#
# Track frame offsets:
#	150
#	12375
#	29262
#	41100
#	49787
#	69087
#	86200
#	104412
#	122562
#	138687
#	158587
#	175275
#	188112
#	199812
#	219537
#
# Disc length: 3285 seconds
#
# Revision: 0
# Processed by: cddbd v1.5.2PL0 Copyright (c) Steve Scherf et al.
# Submitted via: audiograbber 1.83.01
#
DISCID=d40cd30f
DTITLE=Compilation - Cooki'n' With The Blues CD 1
DYEAR=1992
DGENRE=Blues
TTITLE0=Buddy Guy - You Sure Can't Do
TTITLE1=Billy Boy Arnold - Tony McPhee - Catfish
TTITLE2=Johnny "Guitar" Watson - One Room Country Shack
TTITLE3=Earl Hooker - The Foxtrot
TTITLE4=Byther Smith - I Don't Like To Travel
TTITLE5=Albert Collins - Deep Freeze
TTITLE6=Roy Gaines And The Crusaders - Hell Of A Night
TTITLE7=Tommy Tucker - Hi Heel Sneakers
TTITLE8=Greg "Fingers" Taylor - Anson Funderburgh And The Rockets - Dixie Diner
TTITLE9=Chicago Blues Summit With Sunnyland Slim - I Can't Stop
TTITLE10=Billy Boy Arnold - Back Door Friend
TTITLE11=Paul Orta And The Kingpins - Up The Line
TTITLE12=Little Milton - Long Distance Operator
TTITLE13=Fenton Robinson - Somebody Loan Me A Dime
TTITLE14=Joe Carter - Stormy Monday
EXTD=
EXTT0=
EXTT1=
EXTT2=
EXTT3=
EXTT4=
EXTT5=
EXTT6=
EXTT7=
EXTT8=
EXTT9=
EXTT10=
EXTT11=
EXTT12=
EXTT13=
EXTT14=
PLAYORDER=
